<?xml version="1.0" encoding="UTF-8"?>
<svg width="155px" height="40px" viewBox="0 0 155 40" version="1.1" xmlns="http://www.w3.org/2000/svg" xmlns:xlink="http://www.w3.org/1999/xlink">
    <!-- Generator: Sketch 52.5 (67469) - http://www.bohemiancoding.com/sketch -->
    <title>logo</title>
    <desc>Created with Sketch.</desc>
    <g id="正泰云管理员-0718" stroke="none" stroke-width="1" fill="none" fill-rule="evenodd">
        <g id="测点列表-无信息-管理员-" transform="translate(-33.000000, -10.000000)" fill="#FFFFFF">
            <g id="left-nav">
                <g id="logo" transform="translate(33.000000, 10.000000)">
                    <path d="M113.863891,28.2060318 L108.577479,28.2060318 C109.419772,29.7265745 110.643596,30.6987743 111.821494,31.4169623 C112.547209,31.8614829 113.322886,32.1805096 114.114712,32.4108338 C116.137427,32.99748 118.519971,32.998992 120.403397,32.998992 L120.403397,30.7521974 C118.682979,30.7521974 115.079135,30.5002016 113.863891,28.2060318 Z M95.848707,23.2215547 C97.4903966,22.424744 98.845434,21.46212 100.080865,20.1083985 L108.61432,20.1083985 C109.885077,21.4913515 111.295124,22.3466253 112.655208,23.0643093 C112.14852,23.9483106 110.524494,24.8161842 108.594638,24.7945125 L108.594638,26.9420208 C111.494973,26.8487824 114.212113,26.8261027 116.713255,24.6423071 C118.020348,24.8776712 119.142733,24.9693976 120.400874,24.9794775 L120.400874,22.5608217 C118.470514,22.3909765 116.381182,22.0407024 114.401364,20.1083985 L120.403397,20.1083985 L120.403397,17.7099024 L102.053113,17.7099024 C102.546679,17.0441295 103.021573,16.3617249 103.471234,15.6642005 L120.403397,15.6642005 L120.403397,13.2672164 L104.92771,13.2672164 C105.326399,12.566668 105.692789,11.8787195 106.02587,11.2205064 L120.403397,11.2205064 L120.403397,8.82251431 L107.122517,8.82251431 C107.238591,8.53221514 107.346086,8.25753971 107.438945,8 L102.964546,8 L102.089449,8 C102.089449,8 101.978926,8.30340295 101.757881,8.82251431 L87.9758641,8.82251431 L87.9758641,11.2205064 L100.637515,11.2205064 C100.512357,11.4669583 99.6781385,13.0152205 99.4798034,13.2672164 L87.9758641,13.2672164 L87.9758641,15.6642005 L97.9839633,15.6642005 C97.5030133,16.355173 96.9751291,17.0446335 96.4078807,17.7099024 L87.9758641,17.7099024 L87.9758641,20.1083985 L94.0278597,20.1083985 C92.2746382,21.5956778 90.2493998,22.7150431 87.9758641,23.0512055 L87.9758641,25.2854004 C87.9758641,25.2854004 89.5569933,25.2627207 91.8007536,24.6916983 C93.957206,26.8402145 96.8600645,26.9767962 99.7069047,26.9420208 L99.7069047,24.8020724 C98.306447,24.7718329 96.8625878,24.2043384 95.848707,23.2215547 Z M96.4855998,31.4169623 C97.8184317,30.598984 98.9438445,29.5945287 99.7069047,28.2060318 L94.45481,28.2060318 C93.2501641,30.5002016 89.670544,30.7521974 87.9582006,30.7521974 L87.9582006,32.998992 C89.8305242,32.998992 92.1938911,32.99748 94.2080267,32.4108338 C94.9917783,32.1805096 95.7624085,31.8614829 96.4855998,31.4169623 Z M84.1489559,8.82100234 L84.1489559,11.8701516 L70.7151607,11.8701516 L70.7151607,18.755181 L83.2178408,18.755181 L83.2178408,22.0361664 L70.7151607,22.0361664 L70.7151607,29.8208209 L84.171666,29.8208209 L84.171666,32.9667366 L58.0651171,32.9944561 C53.9237998,32.998488 52,31.1034796 52,26.9087574 L52,16.4096041 L57.1345066,16.4096041 L57.1345066,27.891037 C57.1345066,29.035602 57.7719041,29.8208209 59.1703431,29.8208209 L65.5412898,29.8208209 L65.5412898,11.8701516 L52,11.8701516 L52,8.82100234 L84.1489559,8.82100234 Z M124.794021,11.7421377 L154.431238,11.7421377 L154.431238,8.82100234 L124.794021,8.82100234 L124.794021,11.7421377 Z M139.541976,32.9909282 L139.507154,32.9909282 L130.389796,32.9939521 C126.248983,32.9964721 124.137951,30.2275421 125.850799,26.9087574 L129.387522,20.0564874 L124.225259,20.0564874 L124.225259,16.9347633 L155,16.9347633 L155,20.0564874 L134.83341,20.0564874 L130.69613,28.4691154 C130.191965,29.4947383 131.107436,30.1121281 132.1627,30.1121281 L146.88643,30.1121281 C147.941189,30.1121281 148.846061,29.4997782 148.353504,28.4691154 L145.899296,23.3369688 L151.355277,23.3369688 L153.19833,26.9087574 C154.911178,30.2275421 152.800651,32.9964721 148.659838,32.9939521 L139.541976,32.9909282 Z M106.818706,22.1621643 L106.818706,28.192928 C106.754108,32.4108338 104.758646,32.998992 101.349099,32.998992 C100.651141,32.998992 99.9526787,33 99.2557302,33 L99.2557302,30.5803363 L100.325125,30.5803363 C101.366258,30.5702564 101.654424,30.297093 101.657452,29.2528224 L101.657452,22.1621643 L106.818706,22.1621643 Z" id="Fill-1"></path>
                    <path d="M27.8623526,23.3953339 C27.8623526,23.9440023 28.291646,24.3914552 28.8180233,24.3914552 L32.1229249,24.3914552 C32.6487966,24.3914552 33.0775843,23.9440023 33.0775843,23.3953339 L33.0775843,21.8535506 C33.0775843,18.4247489 30.3111956,15.6207778 26.9289303,15.6207778 L16.0717018,15.6207778 C12.6894364,15.6207778 9.92203646,18.4262521 9.92203646,21.8535506 L9.92203646,33.2568342 C9.92203646,36.6836316 12.7394954,38.8798084 16.0717018,39.4886049 C19.6906094,40.1495123 23.3105283,40.1911008 26.9289303,39.4886049 C30.2545633,38.8432305 33.0775843,36.6836316 33.0775843,33.2568342 L33.0775843,32.4816835 L35.5734524,32.4816835 C39.1645495,32.4816835 41.5218707,29.4241724 42.2737661,26.2489106 C43.242078,22.3816753 43.242078,18.4267532 42.2737661,14.5585157 C41.5218707,11.3842561 39.1640439,8.32624395 35.5734524,8.32624395 L33.0791012,8.32624395 L33.0791012,7.16026097 L33.0791012,7.12618841 C33.0791012,3.77104356 30.2970376,1.50221203 27.1089402,0.719545328 L27.1038838,0.718543194 C25.2061948,0.226495367 23.3717115,-0.00199119953 21.557454,1.30685971e-05 L21.4421668,1.30685971e-05 C19.6274037,-0.0014901325 17.793426,0.226495367 15.895737,0.718543194 L15.8906805,0.719545328 C12.7025832,1.50221203 9.92001388,3.77104356 9.92001388,7.12618841 L9.92001388,7.16026097 L9.92001388,8.32624395 L7.426674,8.32624395 C3.83608254,8.32624395 1.47825576,11.3842561 0.725854674,14.5585157 C-0.241951558,18.4267532 -0.241951558,22.3816753 0.725854674,26.2489106 C1.46965978,29.3880956 3.78197843,32.4320778 7.3032964,32.4806813 C7.82765119,32.4876963 7.8938908,32.029721 7.8938908,31.8197739 L7.8938908,27.0681552 C6.11401727,25.7157753 5.85259834,22.3300654 5.83692332,20.4039637 C5.85664351,17.9612619 6.27076749,13.1695579 9.67882079,13.1575323 L9.92001388,13.1575323 L14.9370324,13.1575323 L14.9370324,13.148012 L14.9370324,9.03274847 C14.9370324,6.80400231 17.4116634,6.08697538 19.5768391,5.87251869 L19.5980762,5.87001336 C20.2862602,5.81038638 20.9036539,5.79385117 21.3268795,5.78934156 L21.4998104,5.78833943 L21.6722356,5.78934156 C22.0959669,5.79385117 22.7133605,5.81088745 23.4010389,5.87001336 L23.4227817,5.87251869 C25.5874518,6.08697538 28.0625884,6.80400231 28.0625884,9.03274847 L28.0625884,13.1575323 L33.3213056,13.1575323 C36.7293589,13.1695579 37.1429773,17.9612619 37.1632031,20.4039637 C37.1429773,22.8466655 36.7293589,27.6388706 33.3213056,27.6503951 L33.0770787,27.6503951 L33.0770787,27.6393717 C33.0346044,27.6448834 32.9911189,27.649393 32.9471277,27.6503951 L32.9445994,27.6503951 L28.3492896,27.6503951 L27.8623526,27.6508962 L27.8623526,30.340624 L27.8623526,32.3413847 C27.8623526,33.9017074 26.9703933,34.4613993 25.9161216,34.6578176 C23.3069888,35.1428505 19.602627,35.0802171 17.080971,34.6578176 C16.0282162,34.481442 15.1367625,33.8205346 15.1367625,32.3413847 L15.1367625,22.4803855 C15.1367625,21.3650103 16.0140581,20.4520661 17.080971,20.4520661 L25.9161216,20.4520661 C26.9880909,20.4520661 27.8623526,21.1455429 27.8623526,22.4803855 L27.8623526,23.3953339 Z" id="Fill-3"></path>
                </g>
            </g>
        </g>
    </g>
</svg>